<?xml version="1.0" encoding="UTF-8"?>
<svg version="1.1" xmlns="http://www.w3.org/2000/svg" width="1500" height="317">
<path d="M0 0 C3.42506873 1.27026006 6.33584726 2.73275355 9.35693359 4.78100586 C10.18174225 5.33615372 11.0065509 5.89130157 11.85635376 6.46327209 C12.73649139 7.06191574 13.61662903 7.66055939 14.5234375 8.27734375 C16.42244188 9.55643527 18.32186681 10.8349026 20.22167969 12.11279297 C21.18650269 12.76318542 22.15132568 13.41357788 23.14538574 14.0836792 C27.46497905 16.9834498 31.81310018 19.8390076 36.1640625 22.69140625 C37.87898481 23.81758871 39.59382743 24.94389253 41.30859375 26.0703125 C42.60772705 26.92351074 42.60772705 26.92351074 43.93310547 27.79394531 C62.10854949 39.73507687 80.18995852 51.80802321 98.18603516 64.01782227 C108.04739999 70.7025481 117.9746065 77.2709808 127.97607422 83.74414062 C136.53464601 89.28393575 145.04846337 94.89209633 153.5625 100.5 C154.49100769 101.11140839 155.41951538 101.72281677 156.37615967 102.35275269 C173.63194004 113.72193171 190.78846817 125.2348113 207.8976593 136.82321167 C209.53417481 137.92997754 211.1722308 139.03446953 212.81193542 140.13650513 C216.92818927 142.90468159 221.01322101 145.7069056 225.06152344 148.57373047 C225.87958466 149.14349106 226.69764587 149.71325165 227.54049683 150.30027771 C229.09491355 151.38325084 230.63963495 152.48032044 232.17263794 153.59339905 C235.98617935 156.38657338 235.98617935 156.38657338 240.48266602 156.65966797 C241.31338623 156.11197754 242.14410645 155.56428711 243 155 C243.58821533 154.62873489 244.17643066 154.25746979 244.7824707 153.87495422 C247.00173574 152.4524052 249.17425602 150.97211787 251.34765625 149.48046875 C252.59013374 148.63683273 252.59013374 148.63683273 253.85771179 147.77615356 C255.6540409 146.55618302 257.44901935 145.33422187 259.24279785 144.11050415 C264.06710433 140.8203831 268.90246775 137.54661321 273.73828125 134.2734375 C274.74083954 133.59459 275.74339783 132.91574249 276.77633667 132.21632385 C292.07101405 121.87618415 307.52224735 111.77170283 322.95402527 101.63796997 C327.81510973 98.44369237 332.66436962 95.2326658 337.5 92 C343.17513361 88.20611815 348.87197971 84.44628808 354.578125 80.69921875 C375.54019653 66.9297832 396.43028404 53.06429846 417.18457031 38.9831543 C427.1894589 32.20142767 437.26521676 25.54435147 447.41210938 18.97705078 C453.39516715 15.10225718 459.32686943 11.15318438 465.25 7.1875 C466.83167969 6.13079102 466.83167969 6.13079102 468.4453125 5.05273438 C470.96428788 3.36960083 473.48252594 1.68537783 476 0 C476.66 0.33 477.32 0.66 478 1 C471.03652323 10.20865668 463.9872504 19.32141768 456.67163086 28.25341797 C452.49403719 33.36365136 448.44935982 38.56199442 444.4453125 43.80859375 C441.91141293 47.1263102 439.33423081 50.40891466 436.75 53.6875 C432.4788233 59.10866771 428.2336671 64.54949115 424 70 C418.46560019 77.12337349 412.90691785 84.22696763 407.32666016 91.31445312 C405.04913794 94.20808827 402.77475993 97.10419323 400.5 100 C399.5833477 101.16667796 398.66668105 102.33334464 397.75 103.5 C397.069375 104.36625 397.069375 104.36625 396.375 105.25 C392.25 110.5 392.25 110.5 390.87573242 112.24902344 C389.95656687 113.41890016 389.03745905 114.58882223 388.1184082 115.75878906 C385.86543906 118.62671157 383.61156277 121.4939099 381.35546875 124.359375 C378.56615058 127.90299199 375.78216488 131.45076505 373 135 C372.41186523 135.74958984 371.82373047 136.49917969 371.21777344 137.27148438 C369.33026606 139.67910925 367.44603725 142.08926839 365.5625 144.5 C364.67534302 145.63066895 364.67534302 145.63066895 363.77026367 146.78417969 C360.67000139 150.75912551 357.72964433 154.76133853 355 159 C355.81339844 159.63164062 356.62679688 160.26328125 357.46484375 160.9140625 C365.65530701 167.29898363 373.70391171 173.83937863 381.70703125 180.45703125 C385.80817859 183.84702909 389.93059865 187.21008778 394.0625 190.5625 C394.71847168 191.09472168 395.37444336 191.62694336 396.05029297 192.17529297 C397.37211273 193.24738147 398.69405259 194.3193219 400.01611328 195.39111328 C403.34606447 198.09162747 406.6728647 200.79601795 410 203.5 C411.3333184 204.58335171 412.66665173 205.66668505 414 206.75 C438 226.25 438 226.25 440.00073242 227.87573242 C441.33144508 228.95684505 442.66233647 230.03773771 443.9934082 231.1184082 C447.36835242 233.85892404 450.73991236 236.60342941 454.10546875 239.35546875 C462.29818674 246.04716376 470.57201561 252.6068543 479 259 C474.73115917 260.42294694 472.01544658 258.57091856 468.1015625 256.828125 C467.29684006 256.47922211 466.49211761 256.13031921 465.66300964 255.77084351 C463.90735362 255.00842303 462.15360034 254.24160987 460.40151978 253.4710083 C456.61230527 251.80465519 452.81404985 250.15939738 449.01625061 248.51272583 C447.02093841 247.64733251 445.02610386 246.78083713 443.03172302 245.91329956 C433.57882503 241.80398072 424.08776468 237.78808605 414.58660889 233.79187012 C409.88595541 231.81463984 405.18703958 229.83329149 400.48828125 227.8515625 C399.54605713 227.45420898 398.60383301 227.05685547 397.63305664 226.64746094 C386.91148281 222.1231121 376.20574718 217.56163985 365.5 213 C349.26092573 206.08117515 333.00859058 199.19471442 316.74325562 192.33786011 C305.84845706 187.74459361 294.95982072 183.13732964 284.08203125 178.50390625 C283.01044769 178.04748749 281.93886414 177.59106873 280.83480835 177.12081909 C275.65599301 174.91446251 270.47793602 172.70634387 265.30078125 170.49609375 C263.42578691 169.69660131 261.55078719 168.89712149 259.67578125 168.09765625 C258.84230667 167.74119522 258.00883209 167.38473419 257.15010071 167.01747131 C255.56629897 166.34253117 253.98052547 165.67219537 252.3926239 165.00695801 C250.69799387 164.29375721 249.00993251 163.56485518 247.32673645 162.82507324 C246.44757065 162.44975464 245.56840485 162.07443604 244.66259766 161.68774414 C243.47580917 161.17069664 243.47580917 161.17069664 242.26504517 160.64320374 C238.02864764 159.44019606 234.83488588 161.22008244 231 163 C228.91636874 163.84882327 226.83163294 164.69493781 224.74609375 165.5390625 C222.30830313 166.56413098 219.87226099 167.59280687 217.4375 168.625 C216.07903718 169.19798719 214.72047293 169.77073398 213.36181641 170.34326172 C208.90541014 172.22303185 204.45231423 174.11056115 200 176 C199.23870789 176.32307129 198.47741577 176.64614258 197.6930542 176.97900391 C190.39926053 180.07509482 183.1070477 183.17489943 175.81616211 186.27783203 C163.05387686 191.70845956 150.27939294 197.10976707 137.5 202.5 C122.51120835 208.8225018 107.53195643 215.16680843 92.56335449 221.53695679 C82.87600552 225.65915817 73.18429558 229.77073795 63.484375 233.86328125 C62.02865837 234.4775145 62.02865837 234.4775145 60.54353333 235.10415649 C55.70574904 237.14499986 50.86730845 239.18427225 46.02807617 241.22167969 C37.66956386 244.74325153 29.3187107 248.27859698 21.00390625 251.90234375 C20.33138824 252.19458328 19.65887024 252.48682281 18.9659729 252.78791809 C15.91983034 254.11184205 12.87750575 255.44274956 9.84082031 256.78833008 C8.81698242 257.2345874 7.79314453 257.68084473 6.73828125 258.140625 C5.86212158 258.52766602 4.98596191 258.91470703 4.08325195 259.31347656 C2 260 2 260 0 259 C5.63802818 253.79451896 11.50692395 248.98151204 17.56298828 244.2800293 C21.62631696 241.11284751 25.58843422 237.85234346 29.5 234.5 C34.48408901 230.23106557 39.58812613 226.1511691 44.76953125 222.125 C48.7625202 219.00852082 52.65310563 215.79466379 56.5 212.5 C61.48425208 208.23124882 66.58811651 204.15117658 71.76953125 200.125 C75.7625202 197.00852082 79.65310563 193.79466379 83.5 190.5 C87.9157794 186.71811594 92.40921056 183.06737312 97 179.5 C102.81499082 174.97993049 108.46625555 170.29522474 114.0625 165.5078125 C117.02240236 162.98087458 120.00587785 160.48619071 123 158 C122.39414063 157.28457031 121.78828125 156.56914062 121.1640625 155.83203125 C115.79991673 149.45282404 110.61672962 142.97416028 105.5625 136.34765625 C102.927211 132.89441409 100.24971239 129.47542122 97.5625 126.0625 C97.10278809 125.47839355 96.64307617 124.89428711 96.16943359 124.29248047 C94.78007609 122.52796242 93.39007782 120.76395062 92 119 C85.37047168 110.58297964 78.77238077 102.14238653 72.19873047 93.68164062 C66.82461108 86.76763784 61.41769964 79.87987433 56 73 C49.36905089 64.57943414 42.7675038 56.13691374 36.19213867 47.67285156 C32.64161038 43.10448899 29.07920193 38.54592531 25.5 34 C21.21367158 28.5537095 16.94564528 23.09335499 12.6875 17.625 C12.11257813 16.88765625 11.53765625 16.1503125 10.9453125 15.390625 C8.13848466 11.78277669 5.34667813 8.1637314 2.58203125 4.5234375 C2.08550049 3.87036621 1.58896973 3.21729492 1.07739258 2.54443359 C0 1 0 1 0 0 Z " fill="#FFFFFF" transform="translate(0,1)"/>
<path d="M0 0 C36.0305422 -0.2005296 36.0305422 -0.2005296 51 1 C57.78798777 17.03802563 64.49391205 33.10093546 70.93041992 49.28393555 C78.17401797 67.49309389 85.54191283 85.65230709 92.88739014 103.82054138 C95.60308343 110.53890347 98.31410501 117.25912492 101.02055359 123.98121643 C102.73089621 128.22886543 104.44298565 132.47580928 106.15524292 136.72268677 C106.9550003 138.70760338 107.75395853 140.69284221 108.55203247 142.67843628 C113.18500608 154.20393336 117.93931496 165.65521182 123 177 C127.78105986 167.93177753 131.75552084 158.62965783 135.63009644 149.14898682 C137.48806057 144.60427002 139.36201679 140.06614493 141.234375 135.52734375 C141.62439194 134.58101074 142.01440887 133.63467773 142.41624451 132.65966797 C146.69561808 122.28896394 151.06332934 111.95599252 155.4375 101.625 C161.76206975 86.68029148 168.05526145 71.72302617 174.3125 56.75 C179.86500027 43.46602301 185.43974763 30.19190972 191.0625 16.9375 C191.36290192 16.22887817 191.66330383 15.52025635 191.97280884 14.79016113 C192.80525387 12.82719839 193.63870348 10.86466634 194.47265625 8.90234375 C194.93937744 7.80398193 195.40609863 6.70562012 195.88696289 5.57397461 C196.55355442 4.03243601 197.24890939 2.50218122 198 1 C200.80102539 0.58813477 200.80102539 0.58813477 204.53515625 0.37890625 C205.53749046 0.32229576 205.53749046 0.32229576 206.56007385 0.26454163 C214.18401163 -0.12672633 221.80606725 -0.11040548 229.4375 -0.0625 C230.8626286 -0.05746421 232.28775896 -0.05290506 233.71289062 -0.04882812 C237.14196493 -0.03801182 240.57097032 -0.02086761 244 0 C245.12256131 2.24512262 245.13413762 3.51456649 245.125 6 C245.12757813 6.70125 245.13015625 7.4025 245.1328125 8.125 C245 10 245 10 244 12 C242.29760742 12.53076172 242.29760742 12.53076172 240.10546875 12.9296875 C239.31462891 13.08566406 238.52378906 13.24164063 237.70898438 13.40234375 C236.04072168 13.71506224 234.37144827 14.02244061 232.70117188 14.32421875 C228.02636185 15.25690591 224.93715129 15.94503523 222 20 C217.12557506 34.62327481 221.86432009 54.80953165 222.95342779 70.10558367 C223.2311583 74.02067977 223.50281695 77.9361983 223.77542114 81.85165405 C224.23365113 88.41962951 224.69665667 94.98725485 225.16259766 101.5546875 C225.69838981 109.10749479 226.22658214 116.66080448 226.75071037 124.2144295 C227.25888127 131.53552081 227.77245425 138.85622387 228.28842545 146.17676926 C228.5062096 149.2679418 228.72216963 152.35923334 228.93658066 155.45064163 C229.18996437 159.1003996 229.44814306 162.74978983 229.7097702 166.39896584 C229.84845927 168.34828397 229.98261493 170.29792307 230.11654663 172.24757385 C230.57798506 189.34211935 230.57798506 189.34211935 236 205 C241.48541435 208.53504481 247.69514273 208.76630525 254.0859375 209.47265625 C255.04757812 209.64667969 256.00921875 209.82070312 257 210 C258.12256131 212.24512262 258.13413762 213.51456649 258.125 216 C258.12757813 216.70125 258.13015625 217.4025 258.1328125 218.125 C258 220 258 220 257 222 C232.25 222 207.5 222 182 222 C179.73092227 217.46184454 179.99789988 215.82830058 181 211 C183.43074273 208.56925727 189.1912984 209.0075685 192.484375 208.59765625 C195.69944501 208.05109435 198.17621075 207.62012369 201 206 C203.35692363 201.6827315 203.29439059 197.4087025 203.23217773 192.61474609 C203.22285674 191.31898431 203.22285674 191.31898431 203.21334743 189.99704552 C203.04426016 177.4197462 202.19434331 164.86438817 201.41749883 152.31314135 C201.19241677 148.65808874 200.97379806 145.00264837 200.7542572 141.34725952 C200.38593024 135.23027498 200.01299228 129.11358594 199.63696289 122.99707031 C199.20313601 115.93980637 198.77583299 108.88217084 198.35212237 101.82429278 C197.94193889 94.99290704 197.52812305 88.16174661 197.1123333 81.33069992 C196.93630414 78.4385714 196.76136862 75.54637985 196.58729744 72.65413284 C196.34463483 68.6267676 196.09656955 64.59975273 195.84790039 60.57275391 C195.77668976 59.38209824 195.70547913 58.19144257 195.6321106 56.96470642 C195.5634227 55.86627914 195.4947348 54.76785187 195.42396545 53.63613892 C195.33685602 52.21221801 195.33685602 52.21221801 195.24798679 50.75953102 C194.9824525 47.80473605 194.52209554 44.91946702 194 42 C193.70569092 42.70342529 193.41138184 43.40685059 193.1081543 44.1315918 C178.68992422 78.58016775 164.15971095 112.98122299 149.51293945 147.33325195 C145.22566053 157.39269894 140.95900937 167.46031669 136.7265625 177.54296875 C135.86198647 179.60026349 134.99740324 181.65755519 134.1328125 183.71484375 C132.50592711 187.5866807 130.88429178 191.46065879 129.265625 195.3359375 C118.87428262 220.12571738 118.87428262 220.12571738 116 223 C113.1875 223.4375 113.1875 223.4375 110 223 C106.48110382 218.55665611 104.47592519 213.72883816 102.42602539 208.48120117 C102.09108787 207.64035791 101.75615034 206.79951466 101.41106319 205.9331913 C100.29996777 203.13902947 99.19883673 200.3410513 98.09765625 197.54296875 C97.30790583 195.55124461 96.5175271 193.5597695 95.7265625 191.56852722 C93.60349572 186.21885816 91.48888979 180.86588167 89.37581253 175.51226044 C87.1865149 169.9698705 84.98932923 164.43061036 82.79272461 158.89111328 C79.23703813 149.92186532 75.68545605 140.95100344 72.13671875 131.97900391 C67.42533102 120.06875702 62.70053303 108.16387583 57.96875 96.26171875 C57.62440855 95.39552855 57.2800671 94.52933834 56.92529106 93.63689995 C55.58982978 90.27762733 54.25430675 86.91837927 52.91863155 83.5591917 C49.6008677 75.21490866 46.28649807 66.86927876 42.97265625 58.5234375 C42.45695138 57.22470542 41.94124506 55.92597391 41.42553711 54.62724304 C40.28364952 51.75151199 39.14179993 48.87576586 38 46 C36.01005157 59.61523806 34.72073194 73.29515299 33.3984375 86.98828125 C33.27891346 88.22080313 33.15938942 89.453325 33.03624344 90.72319603 C32.46891924 96.57382024 31.90354353 102.42462588 31.34155118 108.27576476 C30.69947988 114.96043164 30.04999669 121.64432308 29.39405382 128.32764274 C28.82056374 134.17616416 28.25670157 140.02558479 27.69612503 145.87535667 C27.45897308 148.33645274 27.21901243 150.79728004 26.97602463 153.25780678 C25.35194517 169.67371027 25.35194517 169.67371027 24.66650391 186.14916992 C24.65015585 186.8396835 24.63380779 187.53019709 24.61696434 188.24163532 C24.63773565 193.38542731 26.04697126 197.35029067 28 202 C28.33 202.99 28.66 203.98 29 205 C30.78794567 205.95992606 30.78794567 205.95992606 33 206.5625 C34.2065625 206.93375 34.2065625 206.93375 35.4375 207.3125 C38.68234198 208.18306736 41.94544191 208.87026285 45.25 209.47265625 C45.8275 209.64667969 46.405 209.82070312 47 210 C48.1898306 212.3796612 48.13349966 213.91485735 48.125 216.5625 C48.12886719 217.77099609 48.12886719 217.77099609 48.1328125 219.00390625 C48 221 48 221 47 222 C45.03630847 222.0940067 43.06920801 222.11743381 41.10327148 222.11352539 C39.84203964 222.11344986 38.5808078 222.11337433 37.28135681 222.11329651 C35.89460206 222.1081891 34.50784771 222.10297309 33.12109375 222.09765625 C31.71004791 222.09579201 30.29900143 222.09436814 28.88795471 222.09336853 C25.16759465 222.08954379 21.4472734 222.0797139 17.72692871 222.06866455 C13.93319219 222.05844948 10.13944942 222.05387071 6.34570312 222.04882812 C-1.10288231 222.03809158 -8.55143572 222.0210157 -16 222 C-17.50934217 218.98131566 -17.17510672 216.32702771 -17 213 C-15 210 -15 210 -12.42578125 209.26171875 C-11.39839844 209.07222656 -10.37101563 208.88273438 -9.3125 208.6875 C-3.44862238 207.30404624 0.28687046 205.80422262 4 201 C8.11822276 192.71432156 9.01912584 183.95792273 9.890625 174.87109375 C10.04986295 173.32103994 10.21033164 171.77111218 10.37188721 170.22129822 C10.73058951 166.75191028 11.07975128 163.28171914 11.42260742 159.81072998 C12.04590323 153.50886046 12.69611608 147.20984889 13.34570312 140.91064453 C14.46223442 130.05122817 15.55391769 119.18948304 16.63072968 108.32605934 C17.25425097 102.03614249 17.88188219 95.74670447 18.52001953 89.45825195 C19.14985327 83.25140694 19.76936453 77.04360988 20.38175201 70.83502007 C20.61267609 68.51030201 20.84699862 66.18591843 21.0851059 63.86192513 C24.21975361 39.85981122 24.21975361 39.85981122 22 16 C21.00818726 15.83395264 21.00818726 15.83395264 19.99633789 15.66455078 C17.0167656 15.1604809 14.03969247 14.64293231 11.0625 14.125 C9.50112305 13.86396484 9.50112305 13.86396484 7.90820312 13.59765625 C6.91884766 13.42363281 5.92949219 13.24960937 4.91015625 13.0703125 C3.99371338 12.91320801 3.07727051 12.75610352 2.13305664 12.59423828 C1.42914795 12.39813965 0.72523926 12.20204102 0 12 C-1.12256131 9.75487738 -1.13413762 8.48543351 -1.125 6 C-1.12757813 5.29875 -1.13015625 4.5975 -1.1328125 3.875 C-1 2 -1 2 0 0 Z " fill="#FFFFFF" transform="translate(583,17)"/>
<path d="M0 0 C0.65202896 -0.00175232 1.30405792 -0.00350464 1.97584534 -0.00531006 C4.14082465 -0.00972751 6.30572291 -0.00679098 8.47070312 -0.00341797 C9.96903499 -0.00409104 11.46736675 -0.00506109 12.96569824 -0.00631714 C16.10979245 -0.00779397 19.2538583 -0.00564005 22.39794922 -0.00097656 C26.43681851 0.00472073 30.47562137 0.00144164 34.51448822 -0.00454903 C37.60960393 -0.00815505 40.70470377 -0.00701586 43.79981995 -0.00442123 C45.28943388 -0.00375208 46.77904923 -0.00457999 48.2686615 -0.00690079 C50.34711548 -0.009428 52.42546044 -0.0055858 54.50390625 0 C56.28142273 0.00119339 56.28142273 0.00119339 58.09484863 0.00241089 C60.75195312 0.12939453 60.75195312 0.12939453 61.75195312 1.12939453 C61.85019308 2.60588329 61.88168831 4.0871487 61.87695312 5.56689453 C61.88082031 6.77152344 61.88082031 6.77152344 61.88476562 8.00048828 C61.75195312 10.12939453 61.75195312 10.12939453 60.75195312 12.12939453 C58.22036652 12.76741289 55.7535581 13.29626821 53.18945312 13.75439453 C52.47853516 13.88845703 51.76761719 14.02251953 51.03515625 14.16064453 C49.27552759 14.491313 47.51390764 14.8113522 45.75195312 15.12939453 C45.33428901 21.1576135 46.67849025 25.3687409 49.02539062 30.88330078 C49.37942963 31.74057266 49.73346863 32.59784454 50.09823608 33.48109436 C51.2996033 36.3711227 52.52298143 39.25100117 53.75195312 42.12939453 C54.19301392 43.16570007 54.63407471 44.20200562 55.08850098 45.26971436 C57.98067137 52.04861362 60.90831464 58.81168019 63.85253906 65.56811523 C65.38489679 69.08512653 66.91250098 72.60417406 68.43945312 76.12353516 C75.42337322 92.20398967 75.42337322 92.20398967 82.75195312 108.12939453 C83.74195313 108.12939453 84.73195313 108.12939453 85.75195312 108.12939453 C86.10773438 106.96150391 86.46351562 105.79361328 86.83007812 104.59033203 C88.96956818 98.18432974 91.77407774 92.07187203 94.5333252 85.91616821 C96.20958172 82.17511644 97.87137372 78.42765371 99.53320312 74.68017578 C99.87780579 73.90359116 100.22240845 73.12700653 100.57745361 72.32688904 C104.45853015 63.56320954 108.23600297 54.75552698 112.00195312 45.94189453 C112.32160034 45.19409729 112.64124756 44.44630005 112.97058105 43.67584229 C114.40599689 40.31698406 115.83996965 36.95751901 117.27246094 33.59741211 C118.03613232 31.80732101 118.80328786 30.01815662 119.61877441 28.25106812 C121.53441532 24.04016656 121.96433655 21.64827821 120.75195312 17.12939453 C113.46915691 14.45071823 113.46915691 14.45071823 106.12695312 11.94189453 C103.75195312 11.12939453 103.75195312 11.12939453 102.75195312 10.12939453 C102.51314715 2.60700647 102.51314715 2.60700647 103.75195312 0.12939453 C111.16655254 0.1062657 118.58114423 0.08847669 125.99577236 0.07758236 C129.43835661 0.07235471 132.88091625 0.06525922 136.32348633 0.05395508 C140.27750356 0.04105218 144.23151068 0.03616535 148.18554688 0.03173828 C150.04801308 0.02399635 150.04801308 0.02399635 151.94810486 0.01609802 C153.65976585 0.01598473 153.65976585 0.01598473 155.40600586 0.01586914 C156.41638412 0.01364853 157.42676239 0.01142792 158.46775818 0.00914001 C160.75195312 0.12939453 160.75195312 0.12939453 161.75195312 1.12939453 C161.85019308 2.60588329 161.88168831 4.0871487 161.87695312 5.56689453 C161.87953125 6.36998047 161.88210938 7.17306641 161.88476562 8.00048828 C161.75195312 10.12939453 161.75195312 10.12939453 160.75195312 12.12939453 C158.74804688 12.77001953 158.74804688 12.77001953 156.18945312 13.37939453 C150.70820195 14.94323224 146.94769065 17.31674609 142.75195312 21.12939453 C142.24148438 21.58572266 141.73101563 22.04205078 141.20507812 22.51220703 C135.38589843 28.48781628 132.25500582 36.68026406 128.75195312 44.12939453 C128.28370117 45.11665527 127.81544922 46.10391602 127.33300781 47.12109375 C115.43241318 72.25091626 104.53795005 97.79281005 93.81445312 123.44189453 C93.43034271 124.36058319 93.0462323 125.27927185 92.65048218 126.22579956 C91.49528594 128.9891465 90.34034743 131.75260097 89.18554688 134.51611328 C88.80883347 135.41760605 88.43212006 136.31909882 88.04399109 137.24790955 C86.2863662 141.45465219 84.52978589 145.66182302 82.77587891 149.87011719 C55.62596949 214.96963304 55.62596949 214.96963304 37.62695312 224.56689453 C31.09161068 227.18783916 23.13242386 227.49236962 16.40429688 225.39892578 C12.64178594 223.44178103 10.2995401 221.04387923 8.75195312 217.12939453 C7.93485414 211.71611373 9.2479901 208.53156909 11.97460938 204.02392578 C15.09419041 200.69865808 18.4085624 198.37722093 22.97045898 197.89477539 C26.20573129 197.92211572 29.41112635 198.13412566 32.63671875 198.37353516 C38.89934508 198.64099623 43.0589177 197.40740421 47.75195312 193.12939453 C49.42900986 190.68077524 50.58430817 188.7233533 51.75195312 186.06689453 C52.07099609 185.37934082 52.39003906 184.69178711 52.71875 183.98339844 C53.75704248 181.70998317 54.75353808 179.42056868 55.75195312 177.12939453 C56.12449219 176.31325684 56.49703125 175.49711914 56.88085938 174.65625 C64.76525897 157.34063852 65.4003752 145.12214368 58.75195312 127.12939453 C55.40720729 118.74629153 51.7112744 110.50908313 48.06445312 102.25439453 C46.5177434 98.72994051 44.97382091 95.20427445 43.43013 91.67849731 C42.38932347 89.30167654 41.34756481 86.92527247 40.30485535 84.54928589 C36.97466031 76.95388796 33.68978614 69.34073741 30.44726562 61.70751953 C30.03830551 60.74590912 29.6293454 59.78429871 29.20799255 58.79354858 C27.66291589 55.15831532 26.11864981 51.52278674 24.58462524 47.88287354 C17.47613556 28.30652148 17.47613556 28.30652148 3.31445312 14.37939453 C0.08847689 13.24747304 -2.89311853 12.68854926 -6.24804688 12.12939453 C-7.43787748 9.74973333 -7.38154653 8.21453719 -7.37304688 5.56689453 C-7.37691406 4.35839844 -7.37691406 4.35839844 -7.38085938 3.12548828 C-7.09102952 -1.230484 -3.62059716 0.0024308 0 0 Z " fill="#FFFFFF" transform="translate(1338.248046875,90.87060546875)"/>
<path d="M0 0 C10.50734126 8.78703819 15.52187132 20.71206821 17.43359375 34.03515625 C17.74050718 38.97226816 17.78167327 43.90651735 17.8125 48.8515625 C17.82873335 50.27629165 17.84591908 51.70101024 17.86399841 53.12571716 C17.90937715 56.85909004 17.94430224 60.59247905 17.97619629 64.32598877 C15.62942973 96.17279916 15.62942973 96.17279916 23.43359375 125.03515625 C27.17871651 127.30653902 30.0632712 127.48725858 34.43359375 127.03515625 C36.45166925 125.72934269 38.45412783 124.39878833 40.43359375 123.03515625 C42.68359375 123.09765625 42.68359375 123.09765625 44.43359375 124.03515625 C46.43359375 127.03515625 46.43359375 127.03515625 46.26953125 128.9765625 C43.83802211 134.96443781 37.89175837 139.13151922 32.30859375 141.97265625 C23.51324393 145.57130839 13.61759939 146.40415996 4.61328125 143.09765625 C-3.06782855 139.35345936 -6.27116796 133.71898378 -9.56640625 126.03515625 C-11.11328125 127.24171875 -11.11328125 127.24171875 -12.69140625 128.47265625 C-23.76915211 136.73669401 -34.36605115 144.14931179 -48.56640625 145.03515625 C-49.63568359 145.11443359 -49.63568359 145.11443359 -50.7265625 145.1953125 C-63.96765053 145.70373491 -78.43738936 142.88354635 -88.44140625 133.78515625 C-96.40415766 125.20266239 -97.04416508 114.65529123 -96.82421875 103.51953125 C-96.33018738 91.92178499 -89.73013325 84.63426865 -81.56640625 77.03515625 C-63.957062 61.54322173 -40.28408331 56.64572074 -18.05371094 51.5949707 C-17.21743164 51.40378662 -16.38115234 51.21260254 -15.51953125 51.015625 C-14.77864258 50.84957764 -14.03775391 50.68353027 -13.27441406 50.51245117 C-11.54840309 50.18072292 -11.54840309 50.18072292 -10.56640625 49.03515625 C-9.54749997 36.74949785 -11.48293497 24.83717264 -17.48046875 14.0234375 C-18.56640625 12.03515625 -18.56640625 12.03515625 -19.56640625 9.03515625 C-21.68425738 7.91730512 -21.68425738 7.91730512 -24.56640625 7.03515625 C-25.2315625 6.77476563 -25.89671875 6.514375 -26.58203125 6.24609375 C-35.98394845 2.72859326 -45.50120781 3.328826 -54.87109375 6.91796875 C-58.57452256 8.64080926 -61.8471489 10.16682722 -63.56640625 14.03515625 C-63.81880914 17.69499815 -63.7278971 20.94509304 -63.19140625 24.56640625 C-62.54921365 29.00823837 -62.22656617 31.31626378 -64.19140625 35.47265625 C-67.41802439 38.9540074 -69.95723986 40.81409503 -74.72265625 41.46875 C-76.3778125 41.47068359 -76.3778125 41.47068359 -78.06640625 41.47265625 C-79.16984375 41.49199219 -80.27328125 41.51132813 -81.41015625 41.53125 C-85.22344695 40.93188376 -86.86192826 39.74453365 -89.56640625 37.03515625 C-91.77618969 30.40580592 -90.94959115 23.98585936 -88.140625 17.6484375 C-79.00579354 2.48416393 -62.58582942 -4.31467885 -46.2109375 -8.578125 C-30.35404193 -10.89693248 -13.385733 -9.36802413 0 0 Z M-24.30151367 65.66064453 C-25.83962944 66.07336877 -27.37868359 66.48261334 -28.91870117 66.88818359 C-42.4150474 70.44391533 -55.27297218 74.22142229 -63.27734375 86.703125 C-67.7943988 95.54140902 -69.638467 105.25630234 -66.66015625 115 C-63.48705186 121.76318723 -59.80081285 125.2653866 -53.25390625 128.84765625 C-44.65133507 131.61797578 -37.61807732 129.81111234 -29.56640625 126.03515625 C-17.98048398 119.75849052 -17.98048398 119.75849052 -9.56640625 110.03515625 C-9.47649533 108.49287769 -9.44883664 106.9467473 -9.45288086 105.40185547 C-9.45295639 104.44101044 -9.45303192 103.48016541 -9.45310974 102.49020386 C-9.45827103 101.45058502 -9.46343231 100.41096619 -9.46875 99.33984375 C-9.47016495 98.27726349 -9.4715799 97.21468323 -9.47303772 96.11990356 C-9.47864791 92.71662616 -9.49120216 89.31341387 -9.50390625 85.91015625 C-9.50891994 83.60677178 -9.51348307 81.30338628 -9.51757812 79 C-9.52862065 73.34502976 -9.54536873 67.69009766 -9.56640625 62.03515625 C-14.25619665 62.03515625 -19.76771797 64.43928765 -24.30151367 65.66064453 Z " fill="#FFFFFF" transform="translate(935.56640625,96.96484375)"/>
<path d="M0 0 C1.02101807 0.00563965 2.04203613 0.0112793 3.09399414 0.01708984 C14.34139737 0.19753424 24.48039485 1.06484636 32.875 9.3125 C38.63089122 15.33767269 41.45209359 18.89193577 41.4296875 27.40625 C40.45943768 32.48981244 36.9634132 35.38885461 32.875 38.3125 C28.05250742 39.91999753 24.37964993 40.03473196 19.75 37.8125 C15.53344569 34.14593104 13.17980167 29.87580392 10.6640625 24.93359375 C7.74323873 19.28728792 5.0884048 15.9434954 -1.0625 13.5625 C-7.40539013 12.79366483 -12.47531852 13.35654851 -18.125 16.3125 C-26.4872552 22.96429391 -29.4769223 34.12787978 -31.125 44.3125 C-32.17548515 53.6138831 -32.63340723 62.96821889 -33.125 72.3125 C-33.23777341 74.32294522 -33.35101646 76.33336418 -33.46484375 78.34375 C-33.70734164 82.66569501 -33.91826995 86.98871869 -34.125 91.3125 C-32.98434082 91.30726318 -31.84368164 91.30202637 -30.66845703 91.29663086 C-26.44548321 91.27856131 -22.22251282 91.26706081 -17.99951172 91.25756836 C-16.17007879 91.25253263 -14.34064991 91.24570373 -12.51123047 91.23706055 C-9.88508102 91.22496176 -7.25898468 91.21926417 -4.6328125 91.21484375 C-3.81193146 91.20968246 -2.99105042 91.20452118 -2.14529419 91.19920349 C3.64725659 91.19862829 3.64725659 91.19862829 5.875 92.3125 C5.92891993 94.10383978 5.96775571 95.89563899 6 97.6875 C6.02320313 98.68523437 6.04640625 99.68296875 6.0703125 100.7109375 C5.875 103.3125 5.875 103.3125 3.875 105.3125 C1.00611419 105.48782289 -1.76492645 105.54387614 -4.6328125 105.5078125 C-5.47343231 105.5049826 -6.31405212 105.50215271 -7.18014526 105.49923706 C-9.87024046 105.4880243 -12.5600051 105.46291803 -15.25 105.4375 C-17.07160978 105.4274716 -18.89322477 105.41834551 -20.71484375 105.41015625 C-25.18502358 105.38808142 -29.65495571 105.35354434 -34.125 105.3125 C-34.01691051 116.91841797 -33.90416521 128.52428083 -33.78566074 140.13009739 C-33.73076235 145.52055077 -33.6773998 150.91100979 -33.62768555 156.30151367 C-33.57954832 161.51464421 -33.52719608 166.7277177 -33.47205925 171.94077873 C-33.45185669 173.9184112 -33.43311082 175.89605917 -33.41592598 177.87372017 C-34.66217242 200.40646352 -34.66217242 200.40646352 -29.125 221.3125 C-23.49368662 225.32701052 -16.29927981 225.9535942 -9.59375 226.72265625 C-7.125 227.3125 -7.125 227.3125 -5.125 230.3125 C-4.79166667 236.64583333 -4.79166667 236.64583333 -6.125 239.3125 C-31.865 239.3125 -57.605 239.3125 -84.125 239.3125 C-85.24756131 237.06737738 -85.25913762 235.79793351 -85.25 233.3125 C-85.25386719 232.260625 -85.25386719 232.260625 -85.2578125 231.1875 C-85.125 229.3125 -85.125 229.3125 -84.125 227.3125 C-81.89524909 226.72879557 -79.63901391 226.24463543 -77.375 225.8125 C-71.01278364 224.73375873 -71.01278364 224.73375873 -65.125 222.3125 C-60.37515968 210.2384907 -61.64972019 195.38391956 -61.61328125 182.65625 C-61.59639957 180.41466308 -61.57824476 178.17308543 -61.55888367 175.93151855 C-61.51175614 170.08574318 -61.48170724 164.24000537 -61.45544434 158.394104 C-61.42544907 152.4071918 -61.3789848 146.42040864 -61.33398438 140.43359375 C-61.24837586 128.72661586 -61.18236935 117.01965036 -61.125 105.3125 C-69.375 105.3125 -77.625 105.3125 -86.125 105.3125 C-86.125 95.3125 -86.125 95.3125 -84.796875 92.703125 C-80.46753831 90.4498445 -76.16861862 90.8965425 -71.375 91.0625 C-70.39144531 91.08054687 -69.40789062 91.09859375 -68.39453125 91.1171875 C-65.97036217 91.16425874 -63.54817941 91.22999258 -61.125 91.3125 C-61.14071045 90.61390869 -61.1564209 89.91531738 -61.17260742 89.19555664 C-61.67608843 63.32682996 -60.28284408 38.44631185 -41.46875 18.66015625 C-40.6953125 17.88542969 -39.921875 17.11070313 -39.125 16.3125 C-38.4134375 15.58933594 -37.701875 14.86617187 -36.96875 14.12109375 C-26.45810083 4.08647036 -14.32018129 -0.08183629 0 0 Z " fill="#FFFFFF" transform="translate(1315.125,-0.3125)"/>
<path d="M0 0 C8.45767334 -0.02312659 16.91533356 -0.0409167 25.37303066 -0.05181217 C29.29988658 -0.05704031 33.22672094 -0.06413669 37.15356445 -0.07543945 C40.94014257 -0.0862708 44.7266999 -0.09227736 48.51329231 -0.09487724 C49.96104319 -0.09673105 51.40879288 -0.10035081 52.85653496 -0.10573006 C54.87757135 -0.11294367 56.89862848 -0.11340808 58.91967773 -0.11352539 C60.64842384 -0.11685631 60.64842384 -0.11685631 62.41209412 -0.12025452 C65 0 65 0 66 1 C66.07205511 2.68608966 66.08386068 4.37500659 66.0625 6.0625 C66.05347656 6.98160156 66.04445313 7.90070313 66.03515625 8.84765625 C66.02355469 9.55792969 66.01195312 10.26820312 66 11 C61.01770224 12.91626837 56.27315333 13.5547115 51 14 C52.34972342 20.60654096 55.55704677 25.10987693 59.5 30.5 C60.76716598 32.26582229 62.03277717 34.03276128 63.296875 35.80078125 C63.92271484 36.67299316 64.54855469 37.54520508 65.19335938 38.44384766 C68.23726829 42.75056743 71.12186968 47.16118014 73.97851562 51.59375 C75.97995383 54.82799522 75.97995383 54.82799522 79 57 C83.18982793 53.07728314 86.42888826 48.83830138 89.6875 44.125 C90.20352783 43.38338623 90.71955566 42.64177246 91.2512207 41.87768555 C92.31486658 40.34442444 93.37565074 38.80917425 94.43359375 37.27197266 C95.93489961 35.09442398 97.45107029 32.92787085 98.96875 30.76171875 C99.87612917 29.44609057 100.78243214 28.12971928 101.6875 26.8125 C102.32014771 25.9145874 102.32014771 25.9145874 102.96557617 24.99853516 C105.43590066 21.35149784 106.60693642 18.39032033 107 14 C106.22914062 13.87882812 105.45828125 13.75765625 104.6640625 13.6328125 C103.66117188 13.46523437 102.65828125 13.29765625 101.625 13.125 C100.12839844 12.88136719 100.12839844 12.88136719 98.6015625 12.6328125 C96 12 96 12 94 10 C93.76953125 7.87109375 93.76953125 7.87109375 93.8125 5.4375 C93.81894531 4.63183594 93.82539062 3.82617188 93.83203125 2.99609375 C94 1 94 1 95 0 C96.71865409 -0.0935919 98.44115744 -0.11744611 100.16235352 -0.11352539 C101.26341934 -0.11344986 102.36448517 -0.11337433 103.49891663 -0.11329651 C104.6968132 -0.10813522 105.89470978 -0.10297394 107.12890625 -0.09765625 C108.34827377 -0.0962413 109.5676413 -0.09482635 110.82395935 -0.09336853 C114.7368307 -0.08774967 118.64964581 -0.07519396 122.5625 -0.0625 C125.20768147 -0.05748743 127.85286383 -0.0529241 130.49804688 -0.04882812 C136.99871726 -0.03777411 143.49935461 -0.02101764 150 0 C151.12256131 2.24512262 151.13413762 3.51456649 151.125 6 C151.12757813 6.70125 151.13015625 7.4025 151.1328125 8.125 C151 10 151 10 150 12 C147.50020546 12.65470809 145.02576321 13.21854322 142.5 13.75 C125.06595728 17.83664413 115.86012495 31.63101472 105.41748047 45.17089844 C103.9674982 47.04193997 102.5038125 48.90140017 101.03515625 50.7578125 C100.54781006 51.37422607 100.06046387 51.99063965 99.55834961 52.62573242 C98.63678933 53.79059341 97.71448709 54.954868 96.79125977 56.1184082 C95.94505166 57.19158101 95.10590045 58.27036145 94.27441406 59.35498047 C93.37296497 60.5185751 92.44492374 61.66179392 91.49902344 62.78955078 C89.84062536 64.78507372 89.84062536 64.78507372 88 68 C88.16793706 70.56002719 88.16793706 70.56002719 90 73 C90.40460449 73.63518555 90.80920898 74.27037109 91.22607422 74.92480469 C92.75385435 77.27322399 94.33775377 79.57503433 95.9375 81.875 C96.51943115 82.71780518 97.1013623 83.56061035 97.70092773 84.42895508 C102.54161528 91.4085971 107.50346083 98.29115394 112.58349609 105.09814453 C114.12144127 107.16305196 115.64867315 109.2356611 117.17578125 111.30859375 C118.24178658 112.7476929 119.30818382 114.18650184 120.375 115.625 C120.86299072 116.28846436 121.35098145 116.95192871 121.85375977 117.63549805 C129.75540519 128.23036123 137.42475577 132.84381712 150.375 135.421875 C153 136 153 136 154 137 C154.09823937 138.66429051 154.12973631 140.33281931 154.125 142 C154.12757813 142.9075 154.13015625 143.815 154.1328125 144.75 C154 147 154 147 153 148 C150.98593871 148.10460718 148.96818089 148.13855828 146.95141602 148.14526367 C145.00918907 148.15483345 145.00918907 148.15483345 143.02772522 148.16459656 C141.60311927 148.16612511 140.17851283 148.16723914 138.75390625 148.16796875 C137.30281033 148.17117962 135.85171473 148.17454356 134.40061951 148.17805481 C131.35488128 148.18405246 128.30917145 148.18589407 125.26342773 148.18530273 C121.35464143 148.18520109 117.44603668 148.19885309 113.53729343 148.21607494 C110.5390692 148.22717671 107.5408891 148.22922251 104.54264641 148.22869301 C103.10130119 148.22987589 101.65995492 148.23431486 100.21862984 148.24202538 C98.20510304 148.25178786 96.19152332 148.24769271 94.17797852 148.24291992 C92.45708763 148.24505745 92.45708763 148.24505745 90.70143127 148.24723816 C88 148 88 148 86 146 C85.68462284 141.66356399 85.55102153 139.67346771 88 136 C90.6015625 135.26953125 90.6015625 135.26953125 93.625 134.8125 C94.62789062 134.65394531 95.63078125 134.49539062 96.6640625 134.33203125 C97.43492188 134.22246094 98.20578125 134.11289063 99 134 C97.50059837 123.78185558 89.87359496 115.2945473 83.64453125 107.40234375 C80.77109 103.74670589 78.0653733 99.97902914 75.375 96.1875 C74.93696045 95.5702002 74.4989209 94.95290039 74.04760742 94.31689453 C73.0298046 92.87929676 72.01459599 91.43986281 71 90 C67.11140246 93.69976277 63.89190368 97.59226589 60.75 101.9375 C60.27763916 102.58630127 59.80527832 103.23510254 59.31860352 103.90356445 C48.49073295 117.33835572 48.49073295 117.33835572 44 133 C44.93972656 133.27263672 44.93972656 133.27263672 45.8984375 133.55078125 C47.12433594 133.92783203 47.12433594 133.92783203 48.375 134.3125 C49.18710938 134.55613281 49.99921875 134.79976562 50.8359375 135.05078125 C53 136 53 136 55 139 C55.25 142.5625 55.25 142.5625 55 146 C53 148 53 148 50.70944214 148.24050903 C49.27714767 148.2338472 49.27714767 148.2338472 47.81591797 148.22705078 C46.73494843 148.22689972 45.65397888 148.22674866 44.54025269 148.22659302 C43.36939117 148.21627045 42.19852966 148.20594788 40.9921875 148.1953125 C39.79643097 148.1924826 38.60067444 148.18965271 37.36868286 148.18673706 C33.53735481 148.17551305 29.70625778 148.15040431 25.875 148.125 C23.28255545 148.11497308 20.69010725 148.10584673 18.09765625 148.09765625 C11.73169158 148.07556646 5.36586229 148.04206706 -1 148 C-2.12256131 145.75487738 -2.13413762 144.48543351 -2.125 142 C-2.12886719 140.948125 -2.12886719 140.948125 -2.1328125 139.875 C-2 138 -2 138 -1 136 C1.30057273 135.53988545 3.61693411 135.1579189 5.9375 134.8125 C21.80561028 132.00395163 30.13349353 119.62028538 39.35546875 107.46484375 C42.06551351 103.89771568 44.84366223 100.3866197 47.625 96.875 C52.24483925 91.02814317 56.67635114 85.07045255 61 79 C58.45999753 73.22726712 55.20513311 68.35332946 51.48339844 63.27001953 C46.37570599 56.24374782 41.63379947 48.97555442 36.88574219 41.703125 C27.53516918 27.5115414 19.60004327 17.21074628 2.58984375 12.82421875 C1.73519531 12.55222656 0.88054688 12.28023437 0 12 C-1.12256131 9.75487738 -1.13413762 8.48543351 -1.125 6 C-1.12886719 4.948125 -1.12886719 4.948125 -1.1328125 3.875 C-1 2 -1 2 0 0 Z " fill="#FFFFFF" transform="translate(983,91)"/>
<path d="M0 0 C1 1 1 1 1.1174612 2.96919918 C1.11218206 4.27571611 1.11218206 4.27571611 1.10679626 5.60862732 C1.10452278 7.10355965 1.10452278 7.10355965 1.10220337 8.62869263 C1.09209732 10.28286697 1.09209732 10.28286697 1.08178711 11.97045898 C1.07872055 13.12497055 1.07565399 14.27948212 1.07249451 15.46897888 C1.06531798 17.98718892 1.05591704 20.50539335 1.04459953 23.02358818 C1.02727119 27.01279759 1.01671168 31.00199037 1.00868225 34.9912262 C0.98452046 46.33785778 0.94884947 57.68443754 0.90405273 69.03100586 C0.8794084 75.2926073 0.86210202 81.55418782 0.85249335 87.81583077 C0.8470482 91.12719681 0.83652954 94.43842638 0.81910515 97.74975395 C0.79979657 101.45487268 0.7929793 105.15982781 0.78881836 108.86499023 C0.78005676 109.94955505 0.77129517 111.03411987 0.76226807 112.15155029 C0.77058905 118.67221415 1.44664033 124.6671274 3 131 C3.15272338 131.73249686 3.30544676 132.46499372 3.46279812 133.21968746 C3.82559866 135.14693372 3.82559866 135.14693372 5.64453125 135.9765625 C11.25024331 137.65322593 16.79053716 138.70329091 22.59375 139.47265625 C23.3878125 139.64667969 24.181875 139.82070312 25 140 C26.12256131 142.24512262 26.13413762 143.51456649 26.125 146 C26.12886719 147.051875 26.12886719 147.051875 26.1328125 148.125 C26 150 26 150 25 152 C-0.74 152 -26.48 152 -53 152 C-54.50934217 148.98131566 -54.17510672 146.32702771 -54 143 C-51.35828517 139.03742775 -48.52164733 138.84770959 -44.125 137.875 C-43.40441406 137.70613281 -42.68382812 137.53726563 -41.94140625 137.36328125 C-39.96286623 136.9005288 -37.98152607 136.44979426 -36 136 C-34.66590001 135.66974842 -33.33234983 135.33724297 -32 135 C-28.90188664 123.59542443 -28.55667457 112.87073368 -28.6015625 101.13671875 C-28.59953617 99.25014636 -28.5966201 97.36357474 -28.59286499 95.477005 C-28.58847335 91.5496159 -28.59477345 87.62243324 -28.60888672 83.69506836 C-28.62603606 78.68082483 -28.61608103 73.66706116 -28.59816933 68.65283489 C-28.58729604 64.76732303 -28.59079305 60.88192384 -28.5985527 56.99640846 C-28.60054185 55.14777379 -28.59814106 53.2991286 -28.59111404 51.45050621 C-28.58343404 48.86476096 -28.59519177 46.27978054 -28.61181641 43.6940918 C-28.60574371 42.9442804 -28.59967102 42.19446899 -28.59341431 41.42193604 C-28.65798462 35.95863446 -29.68133711 30.97892116 -32 26 C-35.49295384 22.9707659 -39.27443345 22.32350017 -43.75 21.4375 C-45.84684468 21.02142207 -47.93605846 20.55679779 -50 20 C-51.60725635 16.78548731 -51.05748185 13.56387464 -51 10 C-45.38418465 8.70624437 -39.77444392 7.58238365 -34.09570312 6.60449219 C-25.48938374 5.12178945 -17.19087985 3.43703595 -8.875 0.734375 C-5.79125738 -0.05332013 -3.17002751 -0.20273432 0 0 Z " fill="#FFFFFF" transform="translate(1198,87)"/>
<path d="M0 0 C5.052464 2.526232 8.74591807 6.43156576 12 11 C13.24401851 14.73205552 13.51681018 18.12392365 13 22 C10.473768 27.052464 6.56843424 30.74591807 2 34 C-2.63157794 35.54385931 -7.02401371 35.7711166 -11.5625 34 C-15.8933499 30.44648214 -20.20662157 26.3801353 -22 21 C-22.34571287 15.64145052 -22.51362025 12.30701837 -19 8 C-13.26848465 2.44845977 -8.38482751 -1.28372359 0 0 Z " fill="#FFFFFF" transform="translate(1188,17)"/>
<path d="" fill="#FFFFFF" transform="translate(0,0)"/>
<path d="" fill="#FFFFFF" transform="translate(0,0)"/>
</svg>
