<svg width="1500" height="317" viewBox="0 0 1500 317" fill="none" xmlns="http://www.w3.org/2000/svg">
<g clip-path="url(#clip0_1243_1775)">
<path d="M1396.51 292.494C1387.42 308.799 1376.38 316.951 1363.41 316.951C1358.86 316.951 1355.03 315.731 1351.93 313.291C1348.93 310.962 1347.43 307.967 1347.43 304.307C1347.43 301.312 1348.82 298.095 1351.59 294.657C1354.48 291.329 1358.08 289.665 1362.41 289.665C1363.52 289.665 1365.01 289.832 1366.9 290.165C1368.9 290.497 1370.67 290.664 1372.22 290.664C1379.99 290.664 1385.7 287.392 1389.36 280.848C1394.79 269.756 1399.23 259.329 1402.67 249.569C1405.44 241.804 1403.83 231.101 1397.84 217.458L1359.25 127.781C1355.92 120.128 1353.2 114.748 1351.09 111.642C1349.1 108.537 1346.77 106.318 1344.11 104.987C1341.55 103.656 1337.67 102.769 1332.46 102.325C1331.57 101.438 1331.13 99.6633 1331.13 97.0013C1331.13 94.2283 1331.57 92.2318 1332.46 91.0117C1341.55 91.4554 1350.76 91.6772 1360.08 91.6772C1368.95 91.6772 1381.76 91.4554 1398.51 91.0117C1399.4 92.1209 1399.84 94.062 1399.84 96.8349C1399.84 99.6078 1399.4 101.438 1398.51 102.325C1394.52 102.658 1391.36 103.213 1389.03 103.989C1386.81 104.655 1385.14 105.431 1384.04 106.318C1382.93 107.095 1382.43 108.481 1382.54 110.478C1382.76 112.363 1383.15 114.083 1383.7 115.635C1384.26 117.077 1385.2 119.407 1386.53 122.623C1386.86 123.4 1387.14 124.01 1387.36 124.453L1417.64 195.33C1418.31 196.994 1418.97 198.214 1419.64 198.99C1420.42 199.767 1421.14 200.155 1421.8 200.155C1422.47 200.044 1423.13 199.656 1423.8 198.99C1424.47 198.214 1425.13 197.105 1425.8 195.663L1459.57 117.632C1462.12 112.197 1461.73 108.481 1458.41 106.485C1455.08 104.377 1449.98 102.991 1443.1 102.325C1441.99 101.438 1441.44 99.6633 1441.44 97.0013C1441.44 94.2283 1441.99 92.2318 1443.1 91.0117C1459.96 91.4554 1470.33 91.6772 1474.21 91.6772C1478.98 91.6772 1487.02 91.4554 1498.34 91.0117C1499.45 92.1209 1500 94.062 1500 96.8349C1500 99.6078 1499.45 101.438 1498.34 102.325C1492.46 102.769 1487.08 105.154 1482.2 109.48C1477.32 113.805 1473.49 118.686 1470.72 124.121C1456.19 154.512 1436.11 200.876 1410.49 263.212C1405.72 274.525 1401.06 284.286 1396.51 292.494Z" fill="black"/>
<path d="M1281.05 196.325C1281.05 209.967 1282.55 218.397 1285.54 221.614C1288.54 224.719 1296.02 226.661 1308 227.437C1308.89 228.546 1309.33 230.487 1309.33 233.26C1309.33 235.922 1308.89 237.697 1308 238.584C1288.48 238.141 1275.11 237.919 1267.9 237.919C1263.14 237.919 1251.16 238.141 1231.97 238.584C1230.86 237.697 1230.3 235.922 1230.3 233.26C1230.3 230.487 1230.86 228.546 1231.97 227.437C1241.73 226.771 1247.88 224.83 1250.44 221.614C1252.99 218.397 1254.26 209.967 1254.26 196.325V104.984H1230.64C1229.53 104.984 1228.97 104.318 1228.97 102.987V98.495C1228.97 93.9474 1231.58 91.6736 1236.79 91.6736H1254.26V78.0307C1254.26 53.296 1260.31 34.1072 1272.4 20.4643C1284.6 6.82145 1298.63 0 1314.49 0C1328.13 0 1338.34 2.44019 1345.1 7.32058C1352.42 12.7555 1356.08 18.5233 1356.08 24.6238C1356.08 28.0622 1354.48 31.2788 1351.26 34.2736C1348.15 37.1575 1345.1 38.5994 1342.11 38.5994C1336.23 38.5994 1331.68 34.9391 1328.47 27.6185C1326.25 21.7399 1323.59 17.6359 1320.48 15.3067C1317.37 12.8665 1313.21 11.6464 1308 11.6464C1290.03 11.6464 1281.05 31.8889 1281.05 72.3739V91.6736H1317.98C1319.76 91.6736 1320.65 92.3945 1320.65 93.8365V100.658C1320.65 103.653 1318.04 105.095 1312.83 104.984H1281.05V196.325Z" fill="black"/>
<path d="M1166.41 33.7698C1166.41 29.6658 1168.35 25.9501 1172.23 22.6225C1176.11 19.1841 1180.11 17.4648 1184.21 17.4648C1188.54 17.4648 1192.31 19.3504 1195.53 23.1217C1198.85 26.8929 1200.52 30.8859 1200.52 35.1008C1200.52 38.9829 1198.69 42.6986 1195.03 46.248C1191.48 49.7974 1187.43 51.5721 1182.88 51.5721C1178.78 51.5721 1175.01 49.6865 1171.57 45.9153C1168.13 42.1441 1166.41 38.0956 1166.41 33.7698ZM1197.52 196.32C1197.52 209.963 1198.85 218.392 1201.52 221.609C1204.29 224.715 1211.11 226.656 1221.98 227.432C1223.09 228.541 1223.64 230.482 1223.64 233.255C1223.64 235.917 1223.09 237.692 1221.98 238.579C1202.46 238.136 1189.87 237.914 1184.21 237.914C1177.89 237.914 1165.13 238.136 1145.95 238.579C1145.06 237.692 1144.61 235.917 1144.61 233.255C1144.61 230.482 1145.06 228.541 1145.95 227.432C1156.82 226.545 1163.64 224.548 1166.41 221.443C1169.18 218.337 1170.57 209.963 1170.57 196.32V129.935C1170.57 120.397 1169.24 114.407 1166.58 111.967C1164.02 109.416 1157.98 107.696 1148.44 106.809C1147.11 102.927 1146.89 99.7104 1147.78 97.1593C1168.85 94.3863 1184.38 91.1143 1194.36 87.3431C1197.36 87.3431 1198.85 88.1195 1198.85 89.6723C1198.85 90.2269 1198.8 91.0588 1198.69 92.168C1198.58 93.1662 1198.46 95.2737 1198.35 98.4903C1198.24 101.596 1198.08 104.646 1197.85 107.641C1197.74 110.525 1197.63 113.908 1197.52 117.79C1197.52 121.672 1197.52 125.221 1197.52 128.438V196.32Z" fill="black"/>
<path d="M1037.63 115.968L1058.43 146.582C1060.64 149.798 1062.81 150.02 1064.91 147.247L1087.04 116.301C1089.82 112.419 1091.09 109.535 1090.87 107.649C1090.76 105.653 1089.93 104.433 1088.37 103.989C1086.82 103.545 1083.66 102.991 1078.89 102.325C1077.78 101.438 1077.17 99.6633 1077.06 97.0013C1077.06 94.2283 1077.67 92.2318 1078.89 91.0117C1095.75 91.4554 1105.29 91.6772 1107.51 91.6772C1112.72 91.6772 1120.98 91.4554 1132.3 91.0117C1133.18 92.1209 1133.63 94.062 1133.63 96.8349C1133.63 99.6078 1133.18 101.438 1132.3 102.325C1125.31 102.991 1119.54 104.488 1114.99 106.818C1110.45 109.036 1105.18 113.805 1099.19 121.126L1070.57 157.562C1069.46 159.115 1069.46 160.779 1070.57 162.554L1101.35 205.812C1105.01 210.803 1108.23 214.796 1111 217.791C1113.89 220.786 1116.99 222.893 1120.32 224.113C1123.76 225.333 1126.03 226.054 1127.14 226.276C1128.36 226.498 1131.13 226.886 1135.46 227.441C1136.57 228.55 1137.12 230.491 1137.12 233.264C1137.12 235.926 1136.57 237.701 1135.46 238.588C1118.6 238.144 1109 237.922 1106.68 237.922C1099.91 237.922 1088.1 238.144 1071.24 238.588C1070.13 237.701 1069.57 235.926 1069.57 233.264C1069.57 230.491 1070.13 228.55 1071.24 227.441C1071.9 227.441 1073.01 227.274 1074.56 226.941C1076.23 226.498 1077.28 226.276 1077.73 226.276C1078.17 226.276 1078.89 226.11 1079.89 225.777C1081 225.444 1081.61 225.111 1081.72 224.779C1081.83 224.446 1082.11 224.002 1082.55 223.448C1082.99 222.893 1083.05 222.227 1082.72 221.451C1082.38 220.675 1082 219.732 1081.55 218.623C1081.11 217.403 1080.33 216.016 1079.22 214.463C1078.23 212.799 1077.06 211.08 1075.73 209.306L1055.93 182.02C1055.04 180.911 1054.27 180.245 1053.6 180.023C1052.94 179.801 1052.38 179.857 1051.94 180.19C1051.49 180.522 1050.77 181.354 1049.77 182.685L1028.31 213.798C1025.32 219.233 1024.49 222.671 1025.82 224.113C1027.26 225.555 1030.59 226.664 1035.8 227.441C1036.91 228.55 1037.46 230.491 1037.46 233.264C1037.57 235.926 1037.02 237.701 1035.8 238.588C1018.94 238.144 1009.4 237.922 1007.18 237.922C1003.52 237.922 1000.69 237.978 998.697 238.089C996.7 238.2 994.316 238.311 991.543 238.421C988.881 238.532 985.941 238.588 982.725 238.588C981.616 237.701 981.061 235.926 981.061 233.264C981.061 230.491 981.616 228.55 982.725 227.441C987.716 227.219 991.376 226.831 993.706 226.276C996.146 225.61 999.307 223.947 1003.19 221.285C1007.07 218.512 1011.29 214.186 1015.83 208.307L1044.45 171.538C1045.56 170.207 1045.45 168.488 1044.12 166.38L1014.34 123.122C1005.46 110.367 995.259 103.435 983.723 102.325C982.836 101.438 982.392 99.6633 982.392 97.0013C982.392 94.2283 982.836 92.2318 983.723 91.0117C1000.58 91.4554 1010.34 91.6772 1013.01 91.6772C1019.11 91.6772 1030.59 91.4554 1047.45 91.0117C1048.55 92.1209 1049.11 94.062 1049.11 96.8349C1049.11 99.6078 1048.55 101.438 1047.45 102.325C1046.34 102.547 1044.84 102.769 1042.95 102.991C1041.18 103.213 1039.96 103.324 1039.29 103.324C1038.63 103.324 1037.68 103.49 1036.46 103.823C1035.36 104.155 1034.69 104.377 1034.47 104.488C1034.25 104.599 1033.91 104.932 1033.47 105.486C1033.03 106.041 1032.92 106.596 1033.14 107.15C1033.36 107.594 1033.58 108.259 1033.8 109.147C1034.02 110.034 1034.47 111.032 1035.13 112.142C1035.91 113.14 1036.74 114.415 1037.63 115.968Z" fill="black"/>
<path d="M926.481 158.563L899.528 165.717C877.899 171.152 867.14 183.63 867.251 203.151C867.251 209.252 869.303 214.853 873.407 219.956C877.622 224.947 883.722 227.442 891.708 227.442C899.694 227.442 909.677 222.507 921.656 212.635C924.873 210.417 926.481 207.477 926.481 203.817V158.563ZM926.481 221.619H925.815L918.994 226.943C911.452 232.822 905.296 236.649 900.526 238.423C895.757 240.309 889.545 241.252 881.892 241.252C868.915 241.252 858.488 238.312 850.613 232.434C842.849 226.555 838.967 217.238 838.967 204.482C838.967 193.169 844.124 183.186 854.44 174.535C864.755 165.883 878.343 159.394 895.202 155.069L924.484 147.914C925.815 147.471 926.481 146.14 926.481 143.921C926.481 114.417 917.275 99.6652 898.862 99.6652C891.32 99.6652 884.72 100.885 879.064 103.325C873.407 105.655 870.578 109.204 870.578 113.974C870.578 117.19 870.8 119.409 871.244 120.629C871.909 121.96 872.242 124.012 872.242 126.785C872.242 129.336 870.856 131.887 868.083 134.438C865.421 136.878 861.816 138.098 857.268 138.098C849.282 138.098 845.345 134.105 845.455 126.119C845.455 116.802 851.334 108.206 863.091 100.331C874.96 92.3446 887.826 88.3516 901.691 88.3516C935.964 88.3516 953.101 107.54 953.101 145.918V196.663C953.101 203.207 953.268 208.198 953.6 211.637C953.933 215.075 955.153 218.292 957.261 221.287C959.479 224.17 962.64 225.612 966.744 225.612C969.517 225.612 971.902 224.725 973.898 222.95C975.895 221.176 977.004 220.288 977.226 220.288C977.891 220.288 978.779 220.954 979.888 222.285C981.108 223.616 981.718 224.836 981.718 225.945C981.718 226.611 980.498 228.163 978.058 230.604C975.728 232.933 972.179 235.318 967.41 237.758C962.64 240.087 957.76 241.252 952.768 241.252C939.126 241.363 930.363 234.819 926.481 221.619Z" fill="black"/>
<path d="M787.037 198.316L778.386 55.8979H777.554L701.02 236.25C699.689 238.801 698.081 240.021 696.195 239.91C693.644 239.91 691.925 238.69 691.038 236.25L620.494 59.3918H619.829L606.851 195.987C605.964 206.635 606.851 214.288 609.513 218.947C612.286 223.606 618.941 226.434 629.478 227.432C630.366 228.541 630.809 230.482 630.809 233.255C630.809 235.917 630.366 237.692 629.478 238.579C615.836 238.136 605.132 237.914 597.368 237.914C591.489 237.914 581.728 238.136 568.085 238.579C567.198 237.692 566.754 235.917 566.754 233.255C566.754 230.482 567.198 228.541 568.085 227.432C577.403 226.656 583.725 224.049 587.052 219.613C590.38 215.176 592.543 207.522 593.541 196.653L607.184 56.2306C608.293 43.6969 607.739 36.1545 605.52 33.6034C603.302 31.0523 596.148 29.444 584.058 28.7785C582.948 27.8911 582.394 26.061 582.394 23.288C582.394 20.5151 582.948 18.574 584.058 17.4648L633.471 18.1304L703.35 191.162C704.681 194.157 705.568 195.654 706.012 195.654C706.677 195.654 707.731 194.046 709.173 190.829L781.38 18.1304L825.969 17.4648C827.078 18.574 827.633 20.5151 827.633 23.288C827.744 25.9501 827.189 27.7802 825.969 28.7785C814.767 29.444 807.89 31.2741 805.339 34.2689C802.787 37.2637 801.9 43.586 802.677 53.2358L812.826 196.653C813.158 202.088 813.436 206.136 813.657 208.798C813.99 211.46 814.545 214.178 815.321 216.951C816.209 219.613 817.04 221.443 817.817 222.441C818.704 223.328 820.202 224.216 822.309 225.103C824.527 225.99 826.746 226.545 828.964 226.767C831.293 226.989 834.621 227.21 838.947 227.432C840.056 228.541 840.61 230.482 840.61 233.255C840.61 235.917 840.056 237.692 838.947 238.579C823.973 238.136 811.605 237.914 801.845 237.914C798.85 237.914 786.704 238.136 765.408 238.579C764.299 237.692 763.744 235.917 763.744 233.255C763.744 230.482 764.299 228.541 765.408 227.432C769.845 227.21 773.006 227.044 774.892 226.933C776.777 226.711 778.829 226.212 781.048 225.436C783.266 224.659 784.652 223.827 785.207 222.94C785.873 222.053 786.483 220.389 787.037 217.949C787.592 215.398 787.814 212.791 787.703 210.129C787.592 207.467 787.37 203.529 787.037 198.316Z" fill="black"/>
<path d="M124.319 159.457L1.01946e-05 0.933594L238.957 159.457L0 260.723L124.319 159.457Z" fill="black"/>
<path d="M353.596 159.457L477.915 260.723L238.957 159.457L477.915 0.933633L353.596 159.457Z" fill="black"/>
</g>
<defs>
<clipPath id="clip0_1243_1775">
<rect width="1500" height="317" fill="white"/>
</clipPath>
</defs>
</svg>
